<svg width="32" height="32" viewBox="0 0 32 32" fill="none" xmlns="http://www.w3.org/2000/svg">
<path d="M25.2001 15.441V18.6132C25.2001 19.2724 25.735 19.8028 26.4 19.8028C27.065 19.8028 27.6 19.2724 27.6 18.6132V15.441H30.8C31.465 15.441 32 14.9106 32 14.2514C32 13.5922 31.465 13.0618 30.8 13.0618H27.6V9.88965C27.6 9.23042 27.065 8.70007 26.4 8.70007C25.735 8.70007 25.2001 9.23042 25.2001 9.88965V13.0618H22C21.335 13.0618 20.8 13.5922 20.8 14.2514C20.8 14.9106 21.335 15.441 22 15.441H25.2001Z" fill="#B6B6B6"/>
<path d="M15.2 9.34439C15.2 8.29274 14.7786 7.28417 14.0284 6.54054C13.2783 5.79691 12.2609 5.37915 11.2 5.37915C10.1391 5.37915 9.12172 5.79691 8.37157 6.54054C7.62143 7.28417 7.2 8.29274 7.2 9.34439C7.2 10.396 7.62143 11.4046 8.37157 12.1482C9.12172 12.8919 10.1391 13.3096 11.2 13.3096C12.2609 13.3096 13.2783 12.8919 14.0284 12.1482C14.7786 11.4046 15.2 10.396 15.2 9.34439ZM4.8 9.34439C4.8 7.66175 5.47428 6.04803 6.67452 4.85823C7.87475 3.66843 9.50261 3 11.2 3C12.8974 3 14.5253 3.66843 15.7255 4.85823C16.9257 6.04803 17.6 7.66175 17.6 9.34439C17.6 11.027 16.9257 12.6408 15.7255 13.8306C14.5253 15.0204 12.8974 15.6888 11.2 15.6888C9.50261 15.6888 7.87475 15.0204 6.67452 13.8306C5.47428 12.6408 4.8 11.027 4.8 9.34439ZM2.465 25.9984H19.935C19.49 22.8609 16.77 20.4471 13.485 20.4471H8.915C5.63 20.4471 2.91 22.8609 2.465 25.9984ZM0 26.9055C0 22.0233 3.99 18.0679 8.915 18.0679H13.485C18.41 18.0679 22.4 22.0233 22.4 26.9055C22.4 27.7183 21.735 28.3776 20.915 28.3776H1.485C0.665 28.3776 0 27.7183 0 26.9055Z" fill="#B6B6B6"/>
</svg>
